{
  "accessors": [
    {
      "bufferView": 2,
      "componentType": 5126,
      "count": 40082,
      "max": [
        0.3613339960575104,
        1.6773149967193604,
        0.1530590057373047
      ],
      "min": [
        -0.358146995306015,
        0.9954910278320313,
        -0.1307460069656372
      ],
      "type": "VEC3"
    },
    {
      "bufferView": 2,
      "byteOffset": 480984,
      "componentType": 5126,
      "count": 40082,
      "max": [
        0.9999992251396179,
        0.9999979138374329,
        1.0
      ],
      "min": [
        -0.999999463558197,
        -0.9999973177909851,
        -0.9999999403953552
      ],
      "type": "VEC3"
    },
    {
      "bufferView": 1,
      "componentType": 5126,
      "count": 40082,
      "max": [
        0.9914140105247498,
        0.9267439842224121
      ],
      "min": [
        0.007375999819487333,
        0.036267999559640884
      ],
      "type": "VEC2"
    },
    {
      "bufferView": 1,
      "byteOffset": 320656,
      "componentType": 5126,
      "count": 40082,
      "max": [
        0.9914140105247498,
        0.9267439842224121
      ],
      "min": [
        0.007375999819487333,
        0.036267999559640884
      ],
      "type": "VEC2"
    },
    {
      "bufferView": 0,
      "componentType": 5125,
      "count": 222348,
      "type": "SCALAR"
    }
  ],
  "asset": {
    "extras": {
      "author": "Luis  Torres (https://sketchfab.com/luiseduardotorres99)",
      "license": "CC-BY-4.0 (http://creativecommons.org/licenses/by/4.0/)",
      "source": "https://sketchfab.com/3d-models/jersey-tigres-70a11f6d3e2149fabd8999310113e379",
      "title": "Jersey Tigres"
    },
    "generator": "Sketchfab-12.67.0",
    "version": "2.0"
  },
  "bufferViews": [
    {
      "buffer": 0,
      "byteLength": 889392,
      "name": "floatBufferViews",
      "target": 34963
    },
    {
      "buffer": 0,
      "byteLength": 641312,
      "byteOffset": 889392,
      "byteStride": 8,
      "name": "floatBufferViews",
      "target": 34962
    },
    {
      "buffer": 0,
      "byteLength": 961968,
      "byteOffset": 1530704,
      "byteStride": 12,
      "name": "floatBufferViews",
      "target": 34962
    }
  ],
  "buffers": [
    {
      "byteLength": 2492672,
      "uri": "scene.bin"
    }
  ],
  "images": [
    {
      "uri": "textures/FABRIC_2_Copy_1_FRONT_298718.001_baseColor.png"
    }
  ],
  "materials": [
    {
      "doubleSided": true,
      "name": "FABRIC_2_Copy_1_FRONT_298718.001",
      "pbrMetallicRoughness": {
        "baseColorTexture": {
          "index": 0
        },
        "metallicFactor": 0.0,
        "roughnessFactor": 0.9855568173
      }
    }
  ],
  "meshes": [
    {
      "name": "jersey.003_FABRIC 2 Copy 1_FRONT_298718.001_0",
      "primitives": [
        {
          "attributes": {
            "NORMAL": 1,
            "POSITION": 0,
            "TEXCOORD_0": 2,
            "TEXCOORD_1": 3
          },
          "indices": 4,
          "material": 0,
          "mode": 4
        }
      ]
    }
  ],
  "nodes": [
    {
      "children": [
        1
      ],
      "matrix": [
        1.0,
        0.0,
        0.0,
        0.0,
        0.0,
        2.220446049250313e-16,
        -1.0,
        0.0,
        0.0,
        1.0,
        2.220446049250313e-16,
        0.0,
        0.0,
        0.0,
        0.0,
        1.0
      ],
      "name": "Sketchfab_model"
    },
    {
      "children": [
        2
      ],
      "matrix": [
        0.009999999776482582,
        0.0,
        0.0,
        0.0,
        0.0,
        0.0,
        0.009999999776482582,
        0.0,
        0.0,
        -0.009999999776482582,
        0.0,
        0.0,
        0.0,
        0.0,
        0.0,
        1.0
      ],
      "name": "jerseyTigres.fbx"
    },
    {
      "children": [
        3
      ],
      "name": "RootNode"
    },
    {
      "children": [
        4
      ],
      "matrix": [
        100.0,
        0.0,
        0.0,
        0.0,
        0.0,
        99.99999999999866,
        1.6292067073209114e-05,
        0.0,
        0.0,
        -1.6292067073209114e-05,
        99.99999999999866,
        0.0,
        0.0,
        -133.79737854003906,
        0.0,
        1.0
      ],
      "name": "jersey.003"
    },
    {
      "mesh": 0,
      "name": "jersey.003_FABRIC 2 Copy 1_FRONT_298718.001_0"
    }
  ],
  "samplers": [
    {
      "magFilter": 9729,
      "minFilter": 9987,
      "wrapS": 10497,
      "wrapT": 10497
    }
  ],
  "scene": 0,
  "scenes": [
    {
      "name": "Sketchfab_Scene",
      "nodes": [
        0
      ]
    }
  ],
  "textures": [
    {
      "sampler": 0,
      "source": 0
    }
  ]
}
